<svg width="40" height="40" viewBox="0 0 40 40" fill="none" xmlns="http://www.w3.org/2000/svg">
<g clip-path="url(#clip0_4009_896)">
<path d="M19.679 18.2117C18.6934 18.2117 17.7922 18.8281 17.4365 19.7457C17.2618 20.1964 16.828 20.4935 16.3446 20.4935C15.8613 20.4935 15.4275 20.1965 15.2528 19.7457C14.897 18.8282 13.9957 18.2117 13.0102 18.2117H13.0035C12.2309 18.2117 11.7108 18.5692 11.4096 18.8697C10.9057 19.3722 10.6167 20.1054 10.6167 20.8812C10.6167 20.8922 10.6166 20.903 10.6163 20.9139C10.6258 22.1266 11.1685 24.0228 13.6702 26.2266C14.7144 27.1465 15.7589 27.8175 16.3613 28.174C16.9774 27.8204 18.0948 27.116 19.1934 26.1047C21.1106 24.3396 22.0827 22.4915 22.0827 20.6115C22.0826 19.2882 21.0044 18.2117 19.679 18.2117Z" fill="url(#paint0_linear_4009_896)"/>
<path d="M33.6013 0H11.3579C10.5721 0 9.93524 0.636906 9.93524 1.42262V4.20734H26.9211C28.6573 4.20734 30.0648 5.61481 30.0648 7.35104V35.7927H33.6014C34.3871 35.7927 35.024 35.1558 35.024 34.3701V1.42262C35.0239 0.636906 34.387 0 33.6013 0V0Z" fill="url(#paint1_linear_4009_896)"/>
<path d="M26.4337 6.54956H6.26489C5.55304 6.54956 4.97601 7.12659 4.97601 7.83844V38.7113C4.97601 39.4231 5.55304 40.0001 6.26481 40.0001H26.4337C27.1455 40.0001 27.7225 39.4231 27.7225 38.7113V7.83844C27.7226 7.12659 27.1455 6.54956 26.4337 6.54956ZM7.87277 10.3367C7.87277 9.68998 8.3971 9.16565 9.04384 9.16565C9.69058 9.16565 10.2149 9.68998 10.2149 10.3367C10.2149 10.9835 9.69058 11.5078 9.04384 11.5078C8.3971 11.5078 7.87277 10.9835 7.87277 10.3367ZM20.6043 27.987C19.6487 28.8417 18.6999 29.4881 18.0724 29.8798C16.9024 30.61 16.6344 30.65 16.52 30.6671C16.4625 30.6757 16.4046 30.68 16.3469 30.68C16.1622 30.68 15.9792 30.6363 15.8133 30.5514C15.5055 30.3938 8.2739 26.626 8.2739 20.8815C8.2739 20.8675 8.27414 20.8535 8.2746 20.8396C8.2853 19.4611 8.82368 18.1409 9.75546 17.2116C10.6263 16.3431 11.7821 15.8685 13.0132 15.8698C14.2765 15.8698 15.4708 16.385 16.3445 17.2441C17.2186 16.3851 18.4135 15.8698 19.6789 15.8698C22.2957 15.8698 24.4246 17.9971 24.4246 20.6118C24.4248 23.2013 23.1036 25.7517 20.6043 27.987ZM23.9553 37.5128C23.3086 37.5128 22.7842 36.9885 22.7842 36.3417C22.7842 35.695 23.3086 35.1707 23.9553 35.1707C24.6021 35.1707 25.1264 35.695 25.1264 36.3417C25.1264 36.9885 24.6021 37.5128 23.9553 37.5128Z" fill="url(#paint2_linear_4009_896)"/>
</g>
<defs>
<linearGradient id="paint0_linear_4009_896" x1="16.3495" y1="28.174" x2="16.3495" y2="18.2116" gradientUnits="userSpaceOnUse">
<stop stop-color="#9F2FFF"/>
<stop offset="1" stop-color="#0BB1D3"/>
</linearGradient>
<linearGradient id="paint1_linear_4009_896" x1="22.4796" y1="35.7927" x2="22.4796" y2="-0.000115205" gradientUnits="userSpaceOnUse">
<stop stop-color="#9F2FFF"/>
<stop offset="1" stop-color="#0BB1D3"/>
</linearGradient>
<linearGradient id="paint2_linear_4009_896" x1="16.3492" y1="40.0001" x2="16.3492" y2="6.54945" gradientUnits="userSpaceOnUse">
<stop stop-color="#9F2FFF"/>
<stop offset="1" stop-color="#0BB1D3"/>
</linearGradient>
<clipPath id="clip0_4009_896">
<rect width="40" height="40" fill="white"/>
</clipPath>
</defs>
</svg>
