<svg width="32" height="32" viewBox="0 0 32 32" fill="none" xmlns="http://www.w3.org/2000/svg">
<path d="M24.9651 15.722L16.6275 4.06825C16.553 3.96439 16.4549 3.87973 16.3412 3.82126C16.2275 3.76278 16.1016 3.73216 15.9738 3.73193H15.9719C15.8435 3.7322 15.7171 3.76309 15.6032 3.82203C15.4892 3.88097 15.3909 3.96626 15.3165 4.07081L7.03266 15.7246C6.94692 15.845 6.89609 15.9868 6.88575 16.1343C6.87542 16.2817 6.90599 16.4292 6.9741 16.5604C7.04175 16.6918 7.14435 16.802 7.27059 16.8788C7.39683 16.9557 7.54183 16.9962 7.68962 16.9959H11.5882L11.5879 27.4628C11.5878 27.5685 11.6086 27.6732 11.6491 27.7709C11.6895 27.8686 11.7488 27.9574 11.8236 28.0321C11.8984 28.1068 11.9871 28.1661 12.0848 28.2065C12.1825 28.2469 12.2873 28.2677 12.393 28.2676L19.6061 28.2673C19.7119 28.2673 19.8166 28.2465 19.9143 28.2061C20.0121 28.1656 20.1008 28.1063 20.1756 28.0315C20.2504 27.9567 20.3097 27.8678 20.3501 27.7701C20.3905 27.6724 20.4113 27.5676 20.4112 27.4619V16.9963H24.3111C24.6119 16.9963 24.888 16.8267 25.0269 16.5588C25.0947 16.4272 25.1249 16.2794 25.114 16.1317C25.1031 15.984 25.0516 15.8422 24.9651 15.722Z" fill="white"/>
</svg>
